<svg id="Layer_1" data-name="Layer 1" xmlns="http://www.w3.org/2000/svg" viewBox="0 0 850 850"><defs><style>.cls-1{fill:#fff;}</style></defs><title>Artboard 2</title><path class="cls-1" d="M592,212.37c-6.53-5.81-14-4.55-21.62-3.36q-60.51,9.42-121,18.71-57.9,8.93-115.81,17.88c-12.28,1.92-17.86,8.66-17.86,20.95q0,122.48,0,245c0,4.59-.44,9.18-.76,13.77-.7,10.1-6.47,16.17-15.78,19a58.82,58.82,0,0,1-11.93,2.29c-13.2,1.18-26.58,1.15-39.61,3.29-26.88,4.41-43.26,23.56-45.26,51.19-1.83,25.24,12.94,47.67,37.1,55.68,16.86,5.59,34.15,5.38,51.44,2.31,34.41-6.1,63.33-30.43,62.71-73.73-1.1-77-.27-154.1-.41-231.15,0-4.57,1.13-6.38,5.9-7.06,16.27-2.31,32.46-5.18,48.68-7.82l121.41-19.69c10.42-1.69,20.84-3.34,31.91-5.12v5.9q0,77.58,0,155.16a96.19,96.19,0,0,1-.55,10.6c-1.39,12.43-6.54,19.06-18.76,20.93-12.89,2-26,2.14-39.05,3.36-29.23,2.73-51.22,18.62-54.8,50.44C445.08,585.19,459.18,609.38,482,618c15.67,5.9,31.81,6.17,48.13,4.13,39.78-5,69.07-34.87,68.68-75.91-.84-87.67-.26-175.35-.26-263,0-18.42-.05-36.84,0-55.26C598.64,221.7,596.66,216.55,592,212.37Z"/><path class="cls-1" d="M350.78,792.69A374.71,374.71,0,0,1,50,425,375.48,375.48,0,0,1,279,79.45q13.51-5.71,27.34-10.32v75.56L425.34,76l41.15-23.76h0L533,13.85h0q-18.93-5-38.52-8.19Q484,3.93,473.29,2.72q-3.4-.38-6.81-.72-6.82-.66-13.71-1.11Q439,0,425,0c-2.3,0-4.59,0-6.88.06l-1.89,0q-2.79.06-5.57.15l-1.42,0q-3.43.13-6.84.3L401,.67q-2.86.16-5.72.36l-1.6.11q-6.95.51-13.83,1.23l-1.32.14q-3.2.35-6.38.74l-.51.06q-3.58.45-7.15,1l-.51.08q-3.31.48-6.61,1l-.74.12Q349.55,6.62,342.51,8L342,8.1q-18.11,3.58-35.64,8.68h0C129.39,68.12,0,231.45,0,425,0,612.4,121.29,771.46,289.64,828L331.11,804Z"/><path class="cls-1" d="M560.36,22,518.89,46,499.22,57.31A374.71,374.71,0,0,1,800,425,375.48,375.48,0,0,1,571,770.55q-13.51,5.71-27.34,10.32V705.31L424.66,774l-41.15,23.76h0L317,836.15h0q18.93,5,38.52,8.19,10.52,1.73,21.2,2.95,3.4.38,6.81.72,6.82.66,13.71,1.11Q411,850,425,850c2.3,0,4.59,0,6.88-.06l1.89,0q2.79-.06,5.57-.15l1.42,0q3.43-.13,6.84-.3l1.34-.08q2.86-.16,5.72-.36l1.6-.11q6.95-.51,13.83-1.23l1.32-.14q3.2-.35,6.38-.74l.51-.06q3.58-.45,7.15-1l.51-.08q3.31-.48,6.61-1l.74-.12q7.12-1.15,14.17-2.54l.47-.09q18.11-3.58,35.64-8.68h0C720.61,781.88,850,618.55,850,425,850,237.6,728.71,78.54,560.36,22Z"/></svg>